<svg width="500" height="457" viewBox="0 0 500 457" fill="none" xmlns="http://www.w3.org/2000/svg">
<path fill-rule="evenodd" clip-rule="evenodd" d="M179.962 421.295L181.51 422.417C178.014 425.554 172.755 421.653 169.806 417.997C165.064 412.117 160.252 405.869 158.809 398.455C157.987 394.236 158.316 389.889 158.648 385.604L159.985 368.326C160.578 360.669 161.173 352.999 162.498 345.435C166.085 324.963 175.115 305.471 188.41 289.497L188.543 289.337C190.891 286.517 193.455 283.438 193.41 279.782C193.314 272.048 197.768 264.82 203.616 259.757C209.465 254.694 216.626 251.445 223.677 248.265C226.871 246.824 231.042 245.533 233.518 248.013C238.61 253.114 247.108 249.865 253.834 247.274C262.092 244.093 270.912 242.379 279.761 242.236C280.018 242.232 280.278 242.229 280.539 242.225L280.539 242.225C285.851 242.149 291.831 242.064 295.072 237.948C297.136 235.327 301.082 235.479 304.394 235.875L327.173 238.6C328.914 238.808 331 239.283 331.549 240.948C333.02 245.412 338.211 247.234 342.711 248.591C358.711 253.415 374.349 259.965 387.933 269.699C401.516 279.433 412.996 292.527 419.088 308.089C409.183 294.551 399.023 280.758 385.277 271.145C381.343 268.393 377.159 266.018 372.913 263.78C362.89 258.496 352.459 253.942 341.622 250.634C291.316 235.279 233.124 249.52 195.594 286.371C190.153 291.714 185.05 297.599 181.964 304.573L186.041 305.838C179.58 308.726 174.78 315.053 173.741 322.054C176.342 317.6 180.048 313.798 184.434 311.084C183.179 315.277 179.914 318.647 176.713 321.95C172.635 326.159 168.661 330.26 169.082 335.823C171.019 330.74 175.897 326.904 181.292 326.22C172.735 334.582 163.551 344.396 163.824 356.358C166.946 349.45 172.246 343.547 178.779 339.703L169.374 352.341C165.817 357.12 162.072 362.582 162.885 368.484C165.979 362.931 170.403 358.125 175.681 354.583C173.139 360.363 169.51 365.663 165.041 370.123C169.291 369.61 173.384 367.849 176.68 365.116C175.298 367.045 174.053 369.221 174.006 371.594C173.96 373.966 175.497 376.511 177.845 376.852C178.556 375.263 180.785 374.592 182.255 375.525C177.799 379.86 177.753 387.893 182.159 392.279C182.551 390.217 184.29 388.48 186.351 388.09C183.065 393.836 182.474 401.052 184.782 407.256C185.48 403.741 187.431 400.488 190.202 398.216C188.604 406.554 185.072 414.515 179.962 421.295ZM178.015 418.639C180.797 418.61 182.528 415.498 182.818 412.731C183.165 409.42 182.343 406.111 181.527 402.884L176.687 383.742C175.776 384.03 175.67 385.021 175.559 386.059C175.465 386.945 175.367 387.865 174.761 388.411C173.536 386.888 173.397 384.582 174.43 382.922C175.473 381.246 174.79 378.9 173.311 377.594C171.831 376.288 169.772 375.844 167.8 375.779C166.734 375.744 165.6 375.826 164.728 376.44C163.855 377.053 163.396 378.359 164.016 379.227C165.861 381.811 167.248 384.721 168.096 387.781C168.159 388.01 168.22 388.241 168.282 388.474C168.703 390.062 169.136 391.696 170.299 392.829C171.197 393.704 171.426 395.04 171.609 396.281L173.087 406.34C173.357 408.171 173.626 410.038 173.318 411.862C173.01 413.687 172.024 415.496 170.369 416.324L175.654 418.122C176.42 418.383 177.205 418.647 178.015 418.639ZM235.619 253.771C234.578 253.991 233.705 253.076 232.959 252.295L232.874 252.205C232.109 251.406 230.795 250.71 229.99 251.467C220.611 260.292 209.937 267.738 198.417 273.494C196.326 274.538 196.045 277.355 196.044 279.692C196.043 280.473 196.791 281.569 197.278 280.959C199.653 277.982 202.742 275.672 205.795 273.396C214.386 266.991 223.079 260.526 232.927 256.304C234.122 255.791 235.521 255.067 235.619 253.771ZM329.893 243.846C329.361 242.599 327.85 242.149 326.517 241.898C322.887 241.214 319.192 240.904 315.5 240.594C310.43 240.169 305.367 239.745 300.488 238.352C298.925 237.906 297.589 239.49 296.732 240.872C299.303 240.604 301.89 240.493 304.475 240.541C308.973 240.624 313.448 241.184 317.912 241.744C320.181 242.028 322.465 242.316 324.641 243.02C324.894 243.101 325.149 243.189 325.406 243.277L325.406 243.277C326.892 243.787 328.427 244.314 329.893 243.846ZM281.871 263.02C282.899 263.255 283.878 264.023 284.032 265.066C284.185 266.107 283.474 267.121 282.565 267.651C281.657 268.181 280.583 268.33 279.54 268.468L276.401 268.883C276.086 268.925 275.762 268.97 275.489 269.132C274.7 269.599 274.754 270.865 275.399 271.517C276.044 272.168 277.034 272.33 277.951 272.328C282.221 272.32 286.263 269.247 287.568 265.181C287.878 264.216 288.041 263.142 287.658 262.203C287.463 261.727 287.138 261.314 286.777 260.948C285.097 259.246 282.595 258.496 280.21 258.664C277.825 258.833 275.556 259.849 273.615 261.245C272.685 261.914 271.798 262.698 271.27 263.715C270.742 264.732 270.628 266.023 271.22 267.005C271.445 267.379 271.793 267.711 272.225 267.782C272.656 267.852 273.154 267.574 273.208 267.14C273.357 265.934 274.237 264.915 275.286 264.302C276.335 263.689 277.544 263.419 278.736 263.181C279.77 262.974 280.843 262.785 281.871 263.02ZM197.717 322.668C198.89 315.728 204.496 310.086 211.031 307.471C214.632 306.03 218.753 305.398 222.375 306.787C223.269 307.129 224.134 307.602 224.778 308.31C225.383 308.976 225.764 309.815 226.051 310.667C227.891 316.124 226.024 322.436 222.071 326.624C218.118 330.813 212.362 333.01 206.618 333.422C204.777 333.554 202.801 333.479 201.281 332.434C199.761 331.388 199.007 329.064 200.177 327.638C200.73 327.664 201.028 328.158 201.334 328.663C201.485 328.914 201.638 329.167 201.825 329.368C202.463 330.054 203.518 330.104 204.454 330.065C208.527 329.893 212.662 328.884 215.978 326.511C219.293 324.139 221.676 320.264 221.606 316.187C221.583 314.874 221.298 313.53 220.553 312.448C219.332 310.671 217.023 309.869 214.871 310.011C212.72 310.153 210.702 311.107 208.87 312.244C206.46 313.74 204.232 315.621 202.721 318.022C201.21 320.424 200.471 323.392 201.11 326.156C200.545 327.175 198.866 326.972 198.173 326.036C197.479 325.1 197.522 323.817 197.717 322.668ZM235.23 379.869C232.25 381.786 229.779 384.788 229.319 388.301C228.947 391.144 229.9 393.975 230.839 396.684C231.572 398.798 232.329 400.958 233.725 402.707C236.246 405.865 240.42 407.172 244.41 407.814C245.497 407.989 247.145 407.498 246.758 406.468C242.545 406.391 238.402 404.438 235.66 401.239C232.919 398.04 231.624 393.646 232.193 389.471C232.312 388.593 232.512 387.719 232.881 386.912C233.627 385.282 235.019 384.028 236.525 383.055C239.767 380.96 243.714 379.978 247.56 380.311C251.267 380.631 254.971 382.256 257.235 385.21C259.498 388.164 260.037 392.522 258.04 395.663C257.716 396.173 257.479 397.076 258.074 397.182C261.289 395.45 263.074 391.63 262.894 387.982C262.714 384.334 260.787 380.92 258.141 378.403C256.677 377.011 254.943 375.835 252.979 375.362C250.39 374.738 247.681 375.382 245.105 376.059C241.678 376.96 238.21 377.951 235.23 379.869ZM381.589 384.4C370.812 380.377 359.102 378.877 347.659 380.055C342.861 380.549 338.048 381.528 333.735 383.686C325.596 387.76 319.777 396.145 318.809 405.195C317.841 414.244 321.754 423.671 328.847 429.374C331.537 431.536 334.59 433.155 337.647 434.777C339.734 435.884 341.823 436.991 343.799 438.274C344.363 438.813 343.093 439.352 342.35 439.112C335.438 436.881 328.726 433.487 323.796 428.154C317.798 421.666 314.872 412.452 316.029 403.692C317.186 394.932 322.403 386.794 329.88 382.085C335.794 378.361 342.865 376.791 349.849 376.54C356.834 376.288 363.798 377.286 370.704 378.356C375.018 379.024 380.076 380.306 381.589 384.4ZM268.198 397.903C267.709 396.781 265.742 396.489 265.382 397.659C263.096 405.098 255.837 410.722 248.063 411.079C246.305 411.159 244.547 410.996 242.796 410.827C239.025 410.462 235.136 410.031 231.834 408.174C227.085 405.504 224.227 400.022 224.194 394.574C224.16 389.126 226.744 383.832 230.668 380.052C230.123 378.527 227.785 379.264 226.624 380.392C220.188 386.647 219.084 397.444 223.6 405.199C228.115 412.955 237.578 417.302 246.498 416.316C255.418 415.33 263.471 409.357 267.618 401.399C268.183 400.314 268.688 399.024 268.198 397.903ZM212.34 435.573C210.887 441.145 210.749 447.056 211.94 452.69C212.475 455.217 212.533 456.609 212.544 456.87C212.545 456.9 212.546 456.915 212.547 456.915C212.547 456.915 212.548 456.9 212.549 456.87C212.561 456.609 212.624 455.211 213.171 452.68C214.389 447.036 214.1 441.073 212.34 435.573ZM220.06 438.943C217.995 443.27 218.251 448.624 220.719 452.735C221.273 453.658 221.694 454.409 222.004 454.963C222.421 455.707 222.639 456.096 222.714 456.07C222.797 456.042 222.709 455.52 222.526 454.428C222.452 453.99 222.364 453.46 222.264 452.833L220.06 438.943ZM225.872 444.469C224.996 447.231 225.641 450.426 227.52 452.632C229.438 454.886 230.065 455.608 229.48 452.707C228.884 449.745 227.644 446.915 225.872 444.469ZM394.079 413.044C391.444 423.625 383.025 431.642 374.862 438.871C375.235 439.675 376.441 439.387 377.213 438.952C385.481 434.299 392.172 426.714 395.225 417.731C398.277 408.748 397.518 398.426 392.7 390.253C392.295 389.567 391.78 388.837 390.998 388.684C390.217 388.531 389.316 389.437 389.776 390.087C394.407 396.647 396.02 405.252 394.079 413.044ZM275.205 317.509C275.186 315.835 275.209 314.023 276.22 312.689C277.612 310.852 280.252 310.659 282.556 310.626C283.585 310.612 284.626 310.599 285.627 310.837C287.758 311.344 289.455 312.916 290.967 314.501C291.302 314.852 291.659 315.284 291.576 315.762C291.473 316.354 290.73 316.627 290.141 316.506C289.749 316.425 289.398 316.23 289.046 316.035L289.045 316.035L289.045 316.035L289.045 316.035L289.045 316.035L289.045 316.035C288.868 315.936 288.69 315.838 288.507 315.754C286.388 314.782 283.898 315.848 281.995 317.194C281.695 317.406 281.373 317.677 281.365 318.044C281.358 318.412 281.673 318.697 281.97 318.915C284.542 320.799 287.835 321.671 291.002 321.307C291.759 321.221 292.649 320.943 292.846 320.206C292.922 319.919 292.893 319.58 292.864 319.253C292.815 318.706 292.77 318.191 293.23 318.001C293.469 317.902 293.741 317.973 293.99 318.046C295.704 318.544 297.709 319.346 298.041 321.1C298.137 321.607 298.069 322.135 297.907 322.625C297.435 324.059 296.119 325.179 294.628 325.416C293.966 325.521 293.29 325.464 292.623 325.407C290.878 325.257 289.131 325.107 287.403 324.828C284.228 324.317 281.124 323.371 278.204 322.025C277.191 321.559 276.137 320.984 275.624 319.994C275.234 319.241 275.215 318.357 275.205 317.509ZM340.404 276.233C339.384 273.476 336.919 271.299 334.056 270.629C333.17 270.422 332.17 270.371 331.418 270.884C330.667 271.397 330.409 272.649 331.125 273.21C331.82 273.754 331.4 275.033 330.551 275.275C329.703 275.517 328.79 274.941 328.366 274.167C327.943 273.393 327.897 272.474 327.892 271.592C327.886 270.415 327.993 269.101 328.863 268.307C329.194 268.005 329.607 267.81 330.017 267.627C331.711 266.869 333.585 266.227 335.396 266.634C337.121 267.021 338.497 268.296 339.7 269.592C340.687 270.654 341.62 271.767 342.495 272.923C343.266 273.942 344.007 275.029 344.297 276.274C344.586 277.518 344.337 278.963 343.375 279.804C342.434 280.628 340.986 280.698 339.844 280.19C338.834 279.74 337.972 278.751 338.048 277.648C338.123 276.546 339.477 275.632 340.404 276.233ZM349.509 353.762C352.04 353.69 354.397 351.741 354.944 349.269C355.277 347.766 354.867 345.978 353.557 345.17C352.6 344.579 351.396 344.622 350.274 344.694C348.72 344.794 347.107 344.929 345.757 345.705C344.407 346.481 343.403 348.089 343.826 349.587C344.514 352.024 346.979 353.835 349.509 353.762ZM349.834 350.111C349.345 350.243 348.648 350.117 348.603 349.612C348.585 349.402 348.698 349.204 348.827 349.037C349.546 348.106 350.916 347.744 352.001 348.199C351.624 349.123 350.798 349.852 349.834 350.111ZM351.141 312.665C350.729 311.714 351.528 310.605 352.498 310.241C353.275 309.949 354.119 309.979 354.957 310.01L354.957 310.01C355.165 310.017 355.373 310.025 355.579 310.027C356.616 310.04 357.761 309.867 358.434 309.078C358.671 308.8 358.832 308.391 358.651 308.073C358.462 307.741 358.016 307.684 357.635 307.664C354.993 307.527 351.873 307.608 350.35 309.771C350.023 310.236 349.221 310.079 348.915 309.6C348.609 309.121 348.679 308.492 348.854 307.951C349.477 306.012 351.268 304.602 353.224 304.037C355.181 303.472 357.281 303.65 359.267 304.1C359.937 304.251 360.632 304.451 361.121 304.933C361.509 305.315 361.726 305.838 361.868 306.364C362.544 308.879 361.545 311.76 359.457 313.316C357.369 314.873 354.323 315.007 352.106 313.64C351.711 313.396 351.326 313.091 351.141 312.665ZM342.085 357.104C343.312 358.574 344.766 359.911 346.528 360.659C350.091 362.172 354.646 360.774 356.747 357.524C357.512 356.34 357.855 354.534 356.723 353.695C354.91 357.505 349.652 359.187 345.964 357.137C345.258 356.744 344.616 356.242 344.032 355.683C341.379 353.144 339.996 348.997 341.552 345.671C342.059 344.587 342.838 343.651 343.69 342.81C345.548 340.976 348.206 339.474 350.686 340.29C350.789 340.324 350.892 340.362 350.995 340.4C351.342 340.527 351.691 340.656 352.056 340.634C352.529 340.607 353.023 340.183 352.902 339.725C352.866 339.59 352.782 339.472 352.695 339.362C351.162 337.409 348.154 336.806 345.986 338.017C343.407 339.458 340.786 341.155 339.414 343.772C337.181 348.031 339.004 353.411 342.085 357.104ZM383.169 291.403C383.056 291.566 383.084 291.792 383.111 292.009C383.144 292.266 383.174 292.509 382.963 292.613C382.191 292.994 381.267 292.955 380.444 292.702C378.198 292.013 376.691 289.951 375.42 287.975C374.677 286.819 373.937 285.591 373.817 284.222C373.697 282.853 374.397 281.312 375.716 280.925C377.186 280.493 378.627 281.587 379.772 282.605C381.063 283.755 382.382 284.939 383.181 286.472C383.979 288.005 384.157 289.985 383.169 291.403ZM378.285 286.274C378.601 286.582 378.775 286.996 378.948 287.41C379.119 287.818 379.29 288.226 379.599 288.533C379.989 288.922 380.582 289.096 381.121 288.981C380.111 287.417 378.941 285.958 377.634 284.633C377.285 284.738 377.256 285.256 377.466 285.554C377.593 285.735 377.772 285.868 377.95 286.002C378.066 286.088 378.182 286.174 378.285 286.274ZM185.975 427.508C185.85 429.559 186.007 431.936 187.649 433.172C188.196 432.867 188.159 432.085 188.09 431.462C187.666 427.627 188.856 423.931 190.053 420.211C190.911 417.548 191.772 414.872 192.048 412.124C192.129 411.327 191.916 410.236 191.115 410.205C190.515 410.182 190.128 410.815 189.886 411.364C187.643 416.458 186.312 421.952 185.975 427.508ZM345.242 353.52C347.094 354.339 349.148 355.175 351.087 354.586C351.858 354.352 352.544 353.907 353.219 353.467C353.216 354.6 352.242 355.551 351.156 355.875C350.07 356.199 348.902 356.026 347.795 355.786C346.565 355.52 345.061 354.765 345.242 353.52ZM198.703 448.086C199.176 447.244 199.256 446.245 199.327 445.282L199.886 437.612C200.16 433.848 200.435 430.07 200.189 426.304C200.158 425.829 200.109 425.328 199.833 424.941C199.556 424.554 198.97 424.348 198.59 424.635C198.311 424.846 198.241 425.229 198.192 425.576C197.585 429.931 197.261 434.325 197.222 438.722C197.193 441.91 197.339 445.204 198.703 448.086ZM190.32 441.494C189.829 441.909 189.011 441.544 188.74 440.96C188.47 440.377 188.579 439.696 188.695 439.064C189.909 432.444 191.286 425.855 192.824 419.303C192.862 419.139 192.904 418.969 193.01 418.838C193.415 418.337 194.233 418.841 194.521 419.417C195.226 420.83 194.888 422.517 194.535 424.056L190.744 440.592C190.668 440.922 190.579 441.276 190.32 441.494ZM203.452 441.788C203.24 444.271 203.612 446.762 203.984 449.226C204.116 450.103 204.748 451.269 205.54 450.87L207.085 434.351C207.148 433.679 207.19 432.933 206.774 432.403C206.357 431.872 205.302 431.894 205.169 432.555L204.03 438.22C203.792 439.402 203.554 440.587 203.452 441.788ZM362.968 391.16C358.57 388.896 353.218 388.003 348.649 389.9C345.237 391.317 335.593 397.437 334.309 405.281C333.45 410.532 333.459 415.897 335.297 420.967L335.593 421.763C336.14 423.199 337.884 424.849 338.858 423.662C336.012 418.515 335.48 412.143 337.434 406.596C339.388 401.049 343.797 396.417 349.24 394.191C350.386 393.722 351.582 393.354 352.814 393.237C355.306 393.001 357.793 393.808 360.02 394.95C364.816 397.407 370.758 401.493 373.04 406.374C375.241 411.08 376.861 416.692 374.87 421.49C372.878 426.288 359.796 429.759 359.796 429.759L361.244 432.401C361.244 432.401 368.567 430.956 373.04 427.698C391.816 414.023 367.175 393.326 362.968 391.16Z" fill="#00160A"/>
<path fill-rule="evenodd" clip-rule="evenodd" d="M31.0508 323.637C24.4103 324.349 17.3767 322.813 12.1918 318.603C8.51965 315.622 5.93942 311.474 4.12888 307.105C2.16317 302.36 1.03301 297.271 0.805811 292.141C0.720275 290.209 0.76622 288.242 1.33382 286.394C2.26798 283.352 4.51766 280.911 6.81415 278.708C11.6999 274.023 17.4425 269.747 24.1399 268.762C28.7036 268.091 33.3459 269.006 37.8131 270.156C41.3216 271.059 44.8256 272.123 47.9813 273.902C54.9546 277.834 59.7868 285.333 60.4858 293.307C61.1849 301.282 60.3249 306.566 49.563 316.474C43.9707 320.125 37.6914 322.924 31.0508 323.637ZM42.7615 298.604C41.6844 298.943 40.6109 299.544 39.499 299.349C37.2275 298.949 36.821 295.832 37.3254 293.582C38.7692 287.139 43.2601 281.449 49.1909 278.548C47.8483 276.113 44.2818 275.934 41.7594 277.105C39.2369 278.275 37.265 280.384 34.8256 281.719C33.6116 282.384 32.173 282.854 30.8524 282.44C28.6794 281.76 27.8499 278.913 28.5613 276.75C29.2727 274.587 31.0482 272.973 32.753 271.464C26.5754 271.68 20.4625 273.534 15.2055 276.786C11.0901 279.331 7.18637 283.505 7.73241 288.313C11.1351 285.575 15.1303 283.575 19.3624 282.494C20.26 282.265 21.3867 282.149 21.9484 282.886C22.3739 283.444 22.2517 284.247 21.979 284.894C20.6264 288.102 16.6482 289.178 14.1808 291.635C13.8568 291.957 13.5461 292.33 13.4677 292.78C13.314 293.663 14.1552 294.468 15.039 294.615C15.9227 294.762 16.8099 294.441 17.6482 294.124C19.3892 293.468 21.1302 292.811 22.8711 292.154C24.1315 291.678 25.6278 291.224 26.7486 291.972C27.908 292.745 28.0173 294.503 27.362 295.733C26.7067 296.963 25.5038 297.787 24.3462 298.563C21.5561 300.433 18.7659 302.303 15.9757 304.173C13.6396 305.739 11.0224 307.85 11.2445 310.653C11.4535 313.292 14.3565 315.086 16.9982 314.916C19.64 314.747 21.9648 313.131 23.9145 311.341C25.8642 309.55 27.624 307.506 29.8881 306.134C31.3656 305.239 33.4736 304.742 34.6739 305.985C35.6011 306.944 35.5117 308.488 35.1637 309.776C34.1606 313.489 31.4488 316.704 27.9573 318.317C30.798 318.973 33.7604 319.096 36.6458 318.68C38.2914 318.443 39.995 317.986 41.185 316.825C42.375 315.664 42.8358 313.62 41.8035 312.317C40.2637 310.373 40.325 307.528 41.3087 305.251C42.2924 302.975 44.0495 301.137 45.7709 299.351C45.2782 298.335 43.8385 298.266 42.7615 298.604ZM55.9127 303.018C57.4596 299.442 57.5159 295.398 57.1242 291.522C56.691 287.235 55.1965 282.333 51.1581 280.831C45.2401 283.288 40.6732 288.768 39.3238 295.031C39.2104 295.558 39.1216 296.124 39.3287 296.621C39.5358 297.118 40.1512 297.48 40.6281 297.23C42.2642 296.373 44.2765 295.886 45.9398 296.69C47.6031 297.493 48.4132 300 47.0663 301.264C45.5782 302.661 44.0498 304.114 43.247 305.99C42.4441 307.866 42.5599 310.295 44.0714 311.667C45.2072 312.697 45.2102 314.72 44.0773 315.754C47.2983 314.813 49.5934 312.044 51.6822 309.417C53.2789 307.41 54.8941 305.372 55.9127 303.018ZM18.8323 284.527C15.4816 285.916 12.2293 287.543 9.10742 289.39C8.36503 289.829 7.61469 290.294 7.07185 290.965C6.33883 291.87 6.0603 293.051 5.83379 294.194C5.10198 297.885 4.72467 301.86 6.27493 305.289C6.76976 306.384 7.44612 307.385 8.11907 308.38C8.31769 308.673 8.54321 308.987 8.88369 309.086C9.22417 309.185 9.67385 308.91 9.59387 308.565C9.34739 307.501 10.1536 306.499 10.9491 305.75C15.6088 301.364 21.8862 298.847 26.0764 294.01C25.4408 293.257 24.235 293.611 23.3287 293.998C21.17 294.92 18.9442 295.684 16.6747 296.283C15.504 296.592 14.1992 296.843 13.1308 296.273C11.567 295.439 11.3125 293.159 12.1385 291.591C12.9645 290.023 14.5347 289.011 16.049 288.091C17.5633 287.17 19.152 286.21 20.0606 284.688C19.8953 284.255 19.2604 284.349 18.8323 284.527ZM30.2996 313.908C31.7803 312.718 33.3801 311.315 33.5416 309.423C33.6261 308.433 32.9914 307.223 32.0026 307.317C31.6988 307.346 31.4213 307.497 31.1592 307.653C26.8532 310.225 24.0194 315.255 19.1621 316.506C20.5347 317.12 21.9659 317.604 23.4299 317.947C23.8658 318.05 24.3198 318.14 24.7583 318.049C25.2685 317.944 25.6955 317.607 26.1016 317.281C27.5009 316.157 28.9003 315.032 30.2996 313.908ZM34.304 272.787C33.3458 273.847 32.3876 274.906 31.4295 275.966C30.6705 276.805 29.8563 277.913 30.2788 278.963C30.59 279.736 31.5091 280.127 32.3403 280.063C33.1715 279.998 33.9286 279.573 34.6256 279.116C37.1097 277.486 39.3462 275.266 42.245 274.615C40.2351 273.882 38.2252 273.15 36.2153 272.417C35.7967 272.265 35.33 272.112 34.9182 272.282C34.6711 272.384 34.4833 272.589 34.304 272.787Z" fill="#00160A"/>
<path fill-rule="evenodd" clip-rule="evenodd" d="M71.7067 146.198C71.4561 151.219 67.5818 156.657 62.5889 156.063C60.3354 153.457 58.5717 150.222 56.8286 147.025C53.481 140.885 50.2095 134.885 43.6917 133.746C37.29 132.627 31.3282 137.336 27.3411 142.468C21.5666 149.9 17.835 158.904 16.6587 168.242C15.9672 173.733 18.2186 181.346 23.719 180.742C30.0018 180.052 34.47 184.994 39.0145 190.021C43.2207 194.673 47.4923 199.398 53.3287 199.796C60.278 200.271 65.9545 204.434 71.7004 208.648C75.5381 211.463 79.4068 214.3 83.7065 216.077C91.7951 219.419 101.123 218.773 109.379 215.87C117.636 212.968 124.984 207.969 131.938 202.656L132.303 202.377C136.099 199.474 140.073 196.435 144.793 195.795C168.931 192.525 191.382 178.367 204.735 157.995C223.666 173.128 250.134 178.3 273.369 171.407C277.311 170.237 281.279 168.669 284.202 165.777C287.126 162.885 288.784 158.395 287.347 154.542C285.775 150.328 281.079 148.072 276.615 147.53C274.168 147.232 271.702 147.32 269.234 147.408H269.233H269.233H269.233H269.233C267.199 147.481 265.163 147.553 263.136 147.41C250.863 146.542 240.643 138.077 231.35 130.013C244.815 125.883 255.732 115.509 262.941 103.41C270.149 91.3105 274.012 77.527 276.947 63.7522C278.492 56.5034 279.639 48.3373 275.498 42.1907C273.644 39.4397 270.926 37.4283 268.218 35.424C265.168 33.1669 262.13 30.9189 260.353 27.6336C256.933 21.3144 250.267 17.5671 243.944 14.1535C227.398 5.22013 208.393 -3.97404 190.561 1.99189C183.615 4.31577 177.615 8.76879 171.765 13.176C162.05 20.4944 151.643 29.0792 149.793 41.1007C133.898 33.9892 113.333 39.6687 103.34 53.9301C101.054 57.1921 99.2997 60.7893 97.5468 64.3829C95.483 68.6136 93.4218 72.8392 90.4995 76.5067C78.7624 71.159 66.8034 66.2981 54.6638 61.9406C49.2816 60.0087 42.8522 58.3015 38.2138 61.646C34.4947 64.3276 33.3538 69.5912 34.4455 74.0444C35.5372 78.4976 38.4516 82.2728 41.577 85.6277C48.3574 92.9059 56.502 98.909 65.461 103.231C65.7501 103.371 66.0412 103.51 66.3332 103.649C69.1384 104.985 72.022 106.359 73.89 108.812C75.9523 111.52 76.0803 116.052 73.189 117.849C68.9186 120.503 68.1323 126.459 69.0076 131.41C69.3067 133.102 69.7458 134.778 70.1843 136.451L70.1843 136.451C71.0291 139.676 71.8718 142.892 71.7067 146.198ZM187.645 172.674C176.884 183.973 161.742 190.583 146.259 192.516C130.776 194.448 114.966 191.936 100.176 186.965C104.155 186.963 107.031 181.754 104.915 178.385C96.7638 187.887 84.3371 192.338 72.4957 196.401C61.798 200.073 49.0111 197.406 41.1531 189.272C33.2951 181.137 31.1686 167.79 36.6947 157.921C39.0968 153.632 43.1709 149.898 48.0691 149.477C52.9673 149.056 58.2416 153.118 57.7873 158.013C55.0617 157.539 52.1933 159.854 52.081 162.618C62.6255 161.483 72.5386 155.44 78.3802 146.589C80.3965 143.533 81.9287 140.206 83.4622 136.875C84.4919 134.639 85.5221 132.401 86.6999 130.244C89.6317 124.874 93.8412 119.755 99.6746 117.909C104.357 116.429 109.418 117.25 114.257 118.085L135.754 121.791C137.363 120.402 134.757 118.176 132.677 117.742C125.958 116.338 119.145 115.473 112.332 114.607C106.015 113.805 99.6963 113.003 93.4517 111.771C80.4729 109.21 67.4284 104.526 57.9817 95.2656C64.3895 91.5793 69.2648 85.3154 71.2651 78.1987C71.6698 76.7589 70.7056 74.3938 69.5364 75.3263C68.2006 79.9463 66.7527 84.7648 63.4057 88.2183C60.0587 91.6717 54.1841 93.1887 50.3958 90.2259C45.4781 86.3797 40.3078 82.1841 38.363 76.2515C36.4182 70.319 39.4947 62.3517 45.6954 61.6243C48.4786 61.2978 51.1993 62.4479 53.7659 63.5729L79.6589 74.9231C87.3653 78.3012 95.1866 81.713 103.511 82.9388C109.356 83.7994 115.3 83.5579 121.203 83.3144L137.938 82.6242C138.622 82.5959 139.324 82.5639 139.954 82.2952C141.635 81.5779 142.205 79.5245 142.576 77.7346C147.067 56.0649 153.1 33.1966 169.423 18.2531C176.727 11.5663 185.826 6.8583 195.503 4.75805C205.042 2.68779 215.567 3.29642 223.779 8.57223C210.003 9.58621 196.625 15.3957 186.48 24.7705C182.217 20.2201 174.283 23.9396 170.883 29.1663C165.613 37.2684 165.708 48.5234 171.116 56.5347C175.668 63.2782 177.356 71.3243 179.048 79.3892C180.602 86.8011 182.161 94.2289 185.948 100.676C191.94 110.875 203.098 117.421 214.751 119.451C226.405 121.48 238.486 119.36 249.561 115.207C237.165 127.571 217.363 131.848 200.97 125.701C199.775 125.253 198.586 124.753 197.397 124.252L197.396 124.251L197.396 124.251L197.396 124.251L197.396 124.251C193.629 122.665 189.849 121.073 185.809 121.121C188.176 123.627 191.199 125.509 194.493 126.526C190.695 132.906 186.71 139.174 182.545 145.321C182.012 146.107 181.405 146.945 180.493 147.211C179.477 147.507 178.417 147.001 177.49 146.489C169.833 142.257 162.969 136.593 157.36 129.879L146.138 143.529C151.897 150.569 158.629 156.81 166.084 162.02C156.162 174.277 141.13 182.261 125.418 183.618C141.682 184.446 158.146 176.818 168.03 163.875C174.287 167.388 180.86 170.337 187.645 172.674ZM239.078 52.6448C242.671 48.7261 244.003 43.1289 243.696 37.8207C243.389 32.5126 241.604 27.4076 239.627 22.4714C244.775 21.8611 250.005 23.8033 254.106 26.9747C258.207 30.1461 261.287 34.4613 263.813 38.9879C266.876 44.475 269.224 50.4083 270.242 56.6092C272.641 71.2097 267.52 86.0964 260.229 98.9717C258.813 101.472 257.29 103.955 255.223 105.95C253.142 107.96 250.582 109.405 247.959 110.624C237.132 115.654 224.679 117.106 212.986 114.7C220.45 108.486 225.722 99.9239 229.079 90.8099C232.436 81.6958 233.973 72.009 234.858 62.3366L234.863 62.2823C235.086 59.8434 235.32 57.28 236.71 55.2659C237.171 54.5992 237.74 54.0211 238.31 53.4426C238.569 53.1796 238.829 52.9164 239.078 52.6448ZM225.57 92.9306C222.349 100.465 217.359 107.383 210.594 112.006C209.802 112.548 208.951 113.07 207.998 113.181C207.157 113.28 206.314 113.048 205.506 112.793C199.755 110.978 194.32 107.76 190.631 102.989C189.292 101.258 188.199 99.348 187.224 97.3887C180.122 83.1185 179.426 65.8052 185.36 51.0113C185.644 50.3047 186.049 49.5113 186.796 49.3631C187.762 49.1714 188.503 50.1595 189.046 50.9813C193.478 57.6983 201.767 61.0989 209.807 61.451C217.847 61.8032 225.756 59.5181 233.38 56.9412C231.991 60.3389 231.637 64.0404 231.286 67.707L231.286 67.7125C231.242 68.1724 231.198 68.6318 231.152 69.09C230.335 77.2429 228.791 85.3966 225.57 92.9306ZM223.933 22.9385C228.047 22.0033 232.847 21.746 235.991 24.56C237.006 25.469 237.76 26.6348 238.381 27.848C242.275 35.4569 240.75 45.4783 234.769 51.5845C227.855 58.6437 216.912 59.8075 207.067 58.9695C203.534 58.6689 199.901 58.1253 196.885 56.2611C192.983 53.8489 190.672 49.5985 188.535 45.5392C198.022 34.9386 210.061 26.0919 223.933 22.9385ZM257.207 150.906C255.916 154.165 254.613 157.468 254.19 160.948C253.768 164.428 254.318 168.162 256.434 170.957C238.871 171.928 221.024 166.513 206.963 155.945C211.497 149.528 215.078 142.439 217.551 134.981C218.529 132.036 222.258 130.807 225.286 131.489C228.074 132.117 230.414 133.905 232.697 135.649L232.977 135.863C233.08 135.941 233.183 136.02 233.286 136.098C240.762 141.774 249 146.35 257.207 150.906ZM134.482 195.412C131.712 198.531 128.402 201.119 125.02 203.561C117.962 208.657 110.265 213.289 101.686 214.77C89.1139 216.939 75.531 211.517 67.9094 201.285L95.3317 191.056C95.9882 190.811 96.6683 190.562 97.3678 190.602C97.7632 190.624 98.1433 190.738 98.5243 190.851C98.7779 190.927 99.0319 191.002 99.2909 191.052C100.171 191.218 101.059 191.072 101.951 190.925C102.506 190.834 103.063 190.742 103.62 190.725C105.673 190.664 107.559 191.602 109.425 192.53C109.899 192.765 110.372 193 110.846 193.218C118.117 196.562 126.501 196.021 134.482 195.412ZM94.8873 78.0835C94.694 77.6513 94.8978 77.1539 95.1018 76.7266C100.718 64.9651 108.147 54.0715 117.046 44.5492C123.306 53.2408 127.472 63.4293 129.095 74.0165C129.42 76.1329 129.069 79.0596 126.944 79.3244C116.761 80.5937 106.399 80.4213 96.2628 78.8137C95.727 78.7288 95.1087 78.5788 94.8873 78.0835ZM133.242 77.3579C131.145 65.8304 126.792 54.7177 120.502 44.8328C125.826 42.0297 132.121 41.9839 138.138 42.0027C141.938 42.0146 146.086 42.1485 148.982 44.6091L141.47 66.7745C140.195 70.5374 138.903 74.4058 139.064 78.3757L134.316 78.4519C134.146 78.4546 133.972 78.4563 133.816 78.3911C133.436 78.2325 133.316 77.763 133.242 77.3579ZM194.341 134.082C195.602 131.936 196.804 129.644 196.932 127.158C202.613 129.713 208.87 130.979 215.097 130.834C216.075 130.811 216.04 132.318 215.639 133.21C214.427 135.909 213.213 138.611 211.809 141.216C210.369 143.89 208.734 146.453 207.1 149.013L203.185 155.15C202.649 155.99 202.096 156.849 201.3 157.448C199.162 159.055 196.112 158.282 193.673 157.186C189.627 155.369 185.904 152.838 182.726 149.744C187.14 144.956 191.041 139.696 194.341 134.082ZM47.4249 139.384C49.3074 141.282 50.5375 143.715 51.7369 146.104L46.0897 146.909C44.2081 147.177 42.2789 147.461 40.6158 148.381C38.9978 149.276 37.7499 150.712 36.6517 152.199C32.059 158.421 29.5134 166.129 29.4974 173.863C29.4915 176.656 26.1901 178.649 23.4881 177.941C20.786 177.233 18.9504 174.549 18.4833 171.795C18.0162 169.041 18.674 166.225 19.499 163.556C22.4023 154.165 27.5957 145.295 35.2794 139.164C36.7475 137.993 38.3697 136.896 40.2243 136.6C42.8639 136.178 45.5425 137.486 47.4249 139.384ZM284.568 155.105C285.221 155.944 285.705 156.966 285.676 158.03C285.638 159.403 284.767 160.608 283.829 161.613C278.378 167.455 270 169.444 262.065 170.381C261.542 170.443 260.994 170.499 260.503 170.307C260.1 170.149 259.776 169.839 259.489 169.515C257.574 167.362 256.816 164.353 256.971 161.476C257.126 158.599 258.119 155.828 259.355 153.226C259.616 152.678 259.917 152.102 260.448 151.808C260.872 151.574 261.377 151.555 261.861 151.543L271.464 151.291C273.829 151.229 276.219 151.169 278.534 151.657C280.848 152.144 283.115 153.239 284.568 155.105ZM177.541 64.3664C173.627 57.116 170.7 49.3345 168.864 41.3028L170.444 37.0802C172.4 33.2939 174.866 29.7713 177.753 26.6371C178.93 25.3606 180.968 25.2194 182.591 25.8345C184.214 26.4495 185.52 27.6725 186.78 28.8662L192.45 34.2378C192.618 34.3975 192.794 34.5699 192.85 34.7952C192.956 35.2194 192.606 35.6078 192.289 35.909C189.634 38.4334 187.275 41.2796 185.383 44.417C182.524 49.1593 180.778 54.4736 179.056 59.7363L177.541 64.3664ZM192.031 23.645C203.575 17.4622 216.202 11.6442 229.224 13.0355C236.031 13.7629 242.543 16.4712 248.214 20.3077C231.97 16.1322 213.863 19.9837 200.725 30.4092C198.694 32.0206 195.647 33.7707 193.839 31.9129C193.375 31.436 193.072 30.7676 192.776 30.1165C192.302 29.0735 191.848 28.0746 190.787 27.977C189.775 27.8838 189.324 26.5103 189.754 25.5887C190.183 24.6672 191.135 24.125 192.031 23.645ZM160.318 136.731C162.597 138.921 165.106 140.853 167.609 142.781L177.723 150.571C174.609 153.316 171.561 156.137 168.585 159.031C161.499 154.831 155.174 149.351 150.008 142.936C152.836 139.99 155.551 136.936 158.144 133.782C158.552 134.946 159.429 135.877 160.318 136.731ZM95.2895 115.662C89.9641 119.822 84.4585 124.201 81.5293 130.291C80.9569 131.481 80.4841 132.734 80.012 133.984L80.012 133.984C79.0085 136.642 78.0083 139.291 76.0626 141.314C75.2001 141.061 74.8609 140.044 74.6508 139.17L72.6243 130.741C72.3509 129.604 72.0756 128.435 72.2309 127.276C72.3856 126.122 72.9545 125.071 73.5134 124.049L79.4591 113.184C79.5916 112.942 79.7291 112.693 79.9415 112.517C80.4676 112.08 81.2458 112.219 81.91 112.382L95.2895 115.662ZM181.803 152.987C185.434 156.721 189.948 159.592 194.869 161.297C195.79 160.431 197.568 160.908 197.931 162.119C196.238 164.316 194.379 166.386 192.374 168.304C191.48 169.161 190.046 168.98 188.838 168.703C182.94 167.349 177.259 165.055 172.074 161.934C171.728 161.725 171.337 161.428 171.372 161.024C171.395 160.753 171.608 160.542 171.809 160.358L179.088 153.654C179.851 152.951 181.079 152.243 181.803 152.987ZM274.736 59.3368C274.669 60.1584 274.553 61.0751 273.911 61.5918C273.906 55.1391 272.305 48.6935 269.292 42.9875C268.746 41.9525 268.153 40.941 267.494 39.9738C267.409 39.8494 267.323 39.725 267.237 39.6002C266.572 38.6404 265.892 37.6583 265.73 36.5124L273.53 44.6603C274.247 45.41 274.985 46.1921 275.325 47.1729C275.652 48.1187 275.574 49.1502 275.492 50.1477L274.736 59.3368ZM265.774 48.9823L264.008 46.7559C262.065 44.3065 259.681 41.6318 256.554 41.6284C254.739 41.6265 253.071 42.5556 251.496 43.4584L249.051 44.8609C248.383 45.244 247.697 45.6425 247.226 46.2518C245.867 48.009 246.858 50.5765 248.142 52.389C249.031 53.6431 250.096 54.8473 251.509 55.4509C253.337 56.2317 255.44 55.8863 257.357 55.3578C259.981 54.634 262.517 53.5899 264.89 52.2559C265.649 51.8293 266.487 51.2044 266.449 50.3347C266.426 49.8226 266.093 49.3839 265.774 48.9823ZM250.343 50.7007C250.039 50.2168 249.725 49.6999 249.72 49.1284C249.711 48.011 250.826 47.2612 251.807 46.7261L255.293 44.8247C255.82 44.5371 256.368 44.2431 256.968 44.2027C257.567 44.1623 258.233 44.4507 258.434 45.0165C259.029 46.6858 260.494 48.0174 262.212 48.4505C262.768 48.5907 262.947 49.3608 262.684 49.8707C262.421 50.3805 261.883 50.6786 261.369 50.9336C259.532 51.8453 257.611 52.5888 255.638 53.1517C254.847 53.3773 254.01 53.5747 253.21 53.3845C251.902 53.0734 251.059 51.8394 250.343 50.7007ZM225.543 67.9116C222.086 68.3141 221.428 74.5481 223.034 77.8731C223.364 78.5572 223.881 79.2616 224.635 79.3572C225.923 79.5207 226.635 77.931 226.92 76.6639L226.927 76.6344C227.303 74.9645 228.98 67.5114 225.543 67.9116ZM207.712 76.0893C208.403 74.4765 208.634 72.6693 208.37 70.9346C208.247 70.1287 208.004 69.3104 207.466 68.6983C206.927 68.0863 206.037 67.7304 205.27 68.0063C204.576 68.256 204.139 68.9353 203.811 69.5958C202.65 71.928 202.188 74.6019 202.498 77.1883C202.642 78.3914 204.158 79.0489 205.308 78.6684C206.459 78.2879 207.235 77.203 207.712 76.0893ZM217.905 72.3984C218.441 71.9537 219.118 72.7615 219.336 73.4236C220.052 75.5998 220.645 77.8166 221.11 80.0597C221.405 81.4772 221.648 82.9499 221.334 84.3633C220.892 86.3561 219.377 87.977 217.62 89.0152C215.862 90.0534 213.862 90.5909 211.89 91.1168C211.369 91.2557 210.714 91.3547 210.377 90.9334C210.092 90.5758 210.233 90.0156 210.558 89.6935C210.877 89.3776 211.321 89.2318 211.748 89.0915L211.773 89.0832C214.848 88.0733 218.133 86.2504 218.849 83.0943C219.243 81.359 218.764 79.6156 218.283 77.865L218.283 77.8648C217.845 76.2704 217.405 74.6699 217.622 73.0638C217.655 72.8191 217.714 72.556 217.905 72.3984ZM196.433 65.2997C195.623 64.1782 196.272 62.4741 197.446 61.7427C198.62 61.0113 200.104 61.0212 201.476 61.1983C203.113 61.4098 204.724 61.8263 206.259 62.4352C206.586 62.5647 206.938 62.7298 207.082 63.0505C207.348 63.6446 206.659 64.2949 206.008 64.2943C205.484 64.2939 205.009 64.0417 204.539 63.7923C204.425 63.7319 204.312 63.6717 204.198 63.6153C201.636 62.3438 198.238 63.0808 196.433 65.2997ZM225.965 64.9133C227.183 64.7108 228.474 64.992 229.497 65.6824C229.925 65.971 230.537 65.4856 230.54 64.9697C230.542 64.4537 230.157 64.0198 229.752 63.7007C228.878 63.0135 227.791 62.6023 226.681 62.5396C225.965 62.4991 225.173 62.6376 224.711 63.1869C224.25 63.7361 224.389 64.767 225.081 64.9583C225.327 65.0265 225.586 64.9804 225.841 64.935C225.882 64.9276 225.924 64.9202 225.965 64.9133ZM210.853 96.5506C211.195 96.3572 211.648 96.6949 211.699 97.0852C211.75 97.4755 211.527 97.8487 211.273 98.1489C209.996 99.6557 207.796 100.12 205.853 99.7665C203.91 99.4132 202.168 98.3687 200.529 97.2668C199.759 96.7486 198.999 96.2134 198.252 95.6616C197.478 95.0897 196.653 94.3899 196.56 93.4318C196.468 92.4737 197.695 91.508 198.396 92.1679C200.118 93.7898 201.88 95.4388 204.022 96.4424C206.165 97.446 208.792 97.7134 210.853 96.5506ZM173.969 104.233C166.793 88.6329 163.799 71.1323 165.381 54.0341C165.408 53.7419 165.445 53.429 165.638 53.208C165.911 52.8963 166.469 52.9093 166.727 53.2334C166.635 62.6391 166.547 72.1013 168.083 81.3812C169.618 90.6611 172.878 99.8422 178.831 107.125C179.009 107.343 179.189 107.559 179.37 107.776C180.394 109.004 181.427 110.242 182.007 111.723C178.136 111.648 175.587 107.75 173.969 104.233ZM181.008 33.7898C180.876 33.6464 180.721 33.5197 180.542 33.4423C180.024 33.2189 179.418 33.4479 178.964 33.7833C177.158 35.1205 177.151 38.2472 178.951 39.5925C179.83 38.8443 180.731 38.0669 181.246 37.0343C181.76 36.0017 181.792 34.6372 181.008 33.7898ZM196.584 50.2634C198.531 51.8437 200.749 53.0885 203.113 53.9266C210.74 56.631 219.31 54.933 226.67 51.569C227.794 51.0551 229.229 51.326 230.089 52.2146C225.363 55.5821 219.574 57.4331 213.771 57.4318C212.492 57.4315 211.214 57.3438 209.939 57.2324C207.33 57.0045 204.702 56.6703 202.249 55.7568C199.795 54.8433 197.504 53.2979 196.115 51.0785L196.584 50.2634ZM279.635 153.051C279.559 153.311 279.768 153.559 279.96 153.75L282.858 156.626C283.174 155.799 282.819 154.836 282.211 154.192C281.604 153.548 280.783 153.157 279.982 152.779C279.825 152.786 279.679 152.901 279.635 153.051Z" fill="#00160A"/>
<path fill-rule="evenodd" clip-rule="evenodd" d="M469.948 41.1915C473.498 42.4219 476.842 39.2203 479.901 37.0392C484.635 33.6642 490.81 32.388 496.494 33.6102C497.437 33.813 498.424 34.1173 499.045 34.8552C499.613 35.5299 499.775 36.4504 499.866 37.3275C500.426 42.6966 499.083 48.2449 496.131 52.7642C494.694 54.9627 492.895 56.9203 491.61 59.2109C490.326 61.5016 489.592 64.3001 490.507 66.7617C495.948 81.3968 493.683 98.6587 484.652 111.395C475.621 124.132 460.081 131.98 444.47 131.689C436.486 131.539 428.664 129.408 421.142 126.729C417.86 125.559 414.252 124.277 410.994 125.511C405.05 127.764 398.791 129.187 392.457 129.725C390.885 129.858 389.243 129.927 387.793 129.306C385.621 128.378 384.311 126.023 384.062 123.675C383.812 121.327 384.462 118.976 385.282 116.762C387.755 110.082 395.434 99.6468 400.082 97.243C399.707 89.1312 399.748 80.9243 401.502 72.9955C403.255 65.0666 406.834 57.3729 412.705 51.7628C415.13 49.4455 417.906 47.5168 420.813 45.8432C435.515 37.3784 453.918 35.6361 469.948 41.1915ZM447.558 40.5329C436.316 40.7961 425.372 45.3122 416.583 52.3285C414.003 54.3885 411.577 56.6771 409.641 59.3513C408.114 61.4593 406.907 63.7853 405.898 66.1847C399.912 80.4219 401.278 97.5277 409.449 110.634C409.627 110.92 409.831 111.223 410.149 111.334C410.541 111.471 410.963 111.271 411.33 111.076C436.992 97.4004 459.833 78.4603 478.022 55.774C478.456 55.2337 478.911 54.6062 478.818 53.92C478.748 53.4053 478.38 52.9873 478.022 52.6114C470.26 44.4735 458.801 40.2698 447.558 40.5329ZM463.276 125.524C475.465 119.802 484.722 108.495 488.681 95.625C489.578 92.7107 490.222 89.6981 490.285 86.6498C490.338 84.0862 489.981 81.534 489.624 78.9948C489.107 75.3136 488.59 71.6324 488.072 67.9512C487.935 66.9752 486.995 65.6869 486.308 66.3938C467.237 86.0197 446.413 103.941 424.164 119.874C423.424 120.404 422.609 121.06 422.569 121.969C422.523 123.022 423.528 123.786 424.441 124.313C436.105 131.039 451.088 131.247 463.276 125.524ZM388.094 124.026C388.981 125.448 390.903 125.74 392.578 125.786C401.367 126.029 410.063 123.453 417.927 119.52C425.791 115.586 432.909 110.325 439.825 104.896C449.051 97.6556 458.001 90.0671 466.723 82.2277C477.525 72.5188 488.139 62.2207 495.232 49.5458C496.603 47.094 497.87 44.4056 497.655 41.6044C497.44 38.8031 495.206 35.975 492.399 36.0845C486.441 36.3168 480.584 38.6074 476.049 42.4779C475.147 43.2476 475.785 44.8862 476.895 45.3028C478.005 45.7195 479.242 45.3055 480.326 44.8267C481.411 44.3479 482.541 43.788 483.719 43.919C485.519 44.1192 486.798 45.9622 486.905 47.7703C487.012 49.5785 486.213 51.3163 485.271 52.8633C483.527 55.7263 481.25 58.2219 478.949 60.6596C458.496 82.3287 434.901 101.028 409.133 115.992C406.813 117.339 404.465 118.661 401.968 119.643C400.658 120.158 399.156 120.572 397.877 119.983C395.781 119.017 395.613 116.074 396.242 113.853C397.186 110.519 399.227 107.505 401.972 105.39C401.452 103.925 400.932 102.46 400.412 100.996C393.636 105.323 388.882 112.684 387.723 120.64C387.555 121.788 387.48 123.042 388.094 124.026ZM407.359 113.975C407.407 113.824 407.319 113.666 407.234 113.532C406.359 112.141 405.484 110.751 404.608 109.36C404.213 108.731 403.447 108.018 402.853 108.465C400.713 110.077 399.181 112.476 398.621 115.096C398.511 115.613 398.446 116.19 398.728 116.637C399.251 117.469 400.502 117.284 401.428 116.952C403.401 116.245 405.302 115.336 407.091 114.243C407.201 114.176 407.319 114.098 407.359 113.975ZM483.5 47.7745C483.412 47.4132 482.982 47.2563 482.61 47.2401C481.483 47.1909 480.304 48.118 480.376 49.2446C480.447 50.3712 482.121 51.0805 482.821 50.1947C483.032 49.9273 483.122 49.5864 483.206 49.2561C483.289 48.929 483.373 48.6018 483.456 48.2746C483.498 48.1107 483.54 47.9388 483.5 47.7745Z" fill="#00160A"/>
</svg>
