<svg width="182" height="56" viewBox="0 0 182 56" fill="none" xmlns="http://www.w3.org/2000/svg">
<path d="M162.436 46.9999V27.1599H166.956L167.356 30.5199C167.969 29.3466 168.849 28.4133 169.996 27.7199C171.169 27.0266 172.543 26.6799 174.116 26.6799C176.569 26.6799 178.476 27.4533 179.836 28.9999C181.196 30.5466 181.876 32.8133 181.876 35.7999V46.9999H176.756V36.2799C176.756 34.5733 176.409 33.2666 175.716 32.3599C175.023 31.4533 173.943 30.9999 172.476 30.9999C171.036 30.9999 169.849 31.5066 168.916 32.5199C168.009 33.5333 167.556 34.9466 167.556 36.7599V46.9999H162.436Z" fill="#FF6100"/>
<path d="M154.532 24.08C153.599 24.08 152.825 23.8 152.212 23.24C151.625 22.68 151.332 21.9733 151.332 21.12C151.332 20.2666 151.625 19.5733 152.212 19.0399C152.825 18.48 153.599 18.2 154.532 18.2C155.465 18.2 156.225 18.48 156.812 19.0399C157.425 19.5733 157.732 20.2666 157.732 21.12C157.732 21.9733 157.425 22.68 156.812 23.24C156.225 23.8 155.465 24.08 154.532 24.08ZM151.972 47V27.16H157.092V47H151.972Z" fill="#FF6100"/>
<path d="M144.363 47.28C143.429 47.28 142.656 46.9867 142.042 46.4C141.456 45.8133 141.163 45.1067 141.163 44.28C141.163 43.4267 141.456 42.7067 142.042 42.12C142.656 41.5333 143.429 41.24 144.363 41.24C145.296 41.24 146.056 41.5333 146.643 42.12C147.256 42.7067 147.562 43.4267 147.562 44.28C147.562 45.1067 147.256 45.8133 146.643 46.4C146.056 46.9867 145.296 47.28 144.363 47.28Z" fill="#FF6100"/>
<path d="M125.917 47.4799C124.21 47.4799 122.81 47.2133 121.717 46.6799C120.623 46.1199 119.81 45.3866 119.277 44.4799C118.743 43.5733 118.477 42.5733 118.477 41.4799C118.477 39.6399 119.197 38.1466 120.637 36.9999C122.077 35.8533 124.237 35.2799 127.117 35.2799H132.157V34.7999C132.157 33.4399 131.77 32.4399 130.997 31.7999C130.223 31.1599 129.263 30.8399 128.117 30.8399C127.077 30.8399 126.17 31.0933 125.397 31.5999C124.623 32.0799 124.143 32.7999 123.957 33.7599H118.957C119.09 32.3199 119.57 31.0666 120.397 29.9999C121.25 28.9333 122.343 28.1199 123.677 27.5599C125.01 26.9733 126.503 26.6799 128.157 26.6799C130.983 26.6799 133.21 27.3866 134.837 28.7999C136.463 30.2133 137.277 32.2133 137.277 34.7999V46.9999H132.917L132.437 43.7999C131.85 44.8666 131.023 45.7466 129.957 46.4399C128.917 47.1333 127.57 47.4799 125.917 47.4799ZM127.077 43.4799C128.543 43.4799 129.677 42.9999 130.477 42.0399C131.303 41.0799 131.823 39.8933 132.037 38.4799H127.677C126.317 38.4799 125.343 38.7333 124.757 39.2399C124.17 39.7199 123.877 40.3199 123.877 41.0399C123.877 41.8133 124.17 42.4133 124.757 42.8399C125.343 43.2666 126.117 43.4799 127.077 43.4799Z" fill="#FF6100"/>
<path d="M111.213 24.08C110.28 24.08 109.507 23.8 108.893 23.24C108.307 22.68 108.013 21.9733 108.013 21.12C108.013 20.2666 108.307 19.5733 108.893 19.0399C109.507 18.48 110.28 18.2 111.213 18.2C112.147 18.2 112.907 18.48 113.493 19.0399C114.107 19.5733 114.413 20.2666 114.413 21.12C114.413 21.9733 114.107 22.68 113.493 23.24C112.907 23.8 112.147 24.08 111.213 24.08ZM104.613 55.7999V51.4399H106.173C107.053 51.4399 107.68 51.2666 108.053 50.92C108.427 50.5733 108.613 49.9866 108.613 49.16V27.16H113.733V49.16C113.733 51.56 113.12 53.2666 111.893 54.28C110.693 55.2933 109.053 55.7999 106.973 55.7999H104.613Z" fill="#FF6100"/>
<path d="M84.0375 46.9999V27.1599H88.5575L88.9575 30.5199C89.5708 29.3466 90.4508 28.4133 91.5975 27.7199C92.7708 27.0266 94.1442 26.6799 95.7175 26.6799C98.1708 26.6799 100.078 27.4533 101.438 28.9999C102.798 30.5466 103.478 32.8133 103.478 35.7999V46.9999H98.3575V36.2799C98.3575 34.5733 98.0108 33.2666 97.3175 32.3599C96.6242 31.4533 95.5442 30.9999 94.0775 30.9999C92.6375 30.9999 91.4508 31.5066 90.5175 32.5199C89.6108 33.5333 89.1575 34.9466 89.1575 36.7599V46.9999H84.0375Z" fill="#FF6100"/>
<path d="M67.7916 47.4799C66.0849 47.4799 64.6849 47.2133 63.5916 46.6799C62.4982 46.1199 61.6849 45.3866 61.1516 44.4799C60.6182 43.5733 60.3516 42.5733 60.3516 41.4799C60.3516 39.6399 61.0716 38.1466 62.5116 36.9999C63.9516 35.8533 66.1116 35.2799 68.9916 35.2799H74.0316V34.7999C74.0316 33.4399 73.6449 32.4399 72.8716 31.7999C72.0982 31.1599 71.1382 30.8399 69.9916 30.8399C68.9516 30.8399 68.0449 31.0933 67.2716 31.5999C66.4982 32.0799 66.0182 32.7999 65.8316 33.7599H60.8316C60.9649 32.3199 61.4449 31.0666 62.2716 29.9999C63.1249 28.9333 64.2182 28.1199 65.5516 27.5599C66.8849 26.9733 68.3782 26.6799 70.0316 26.6799C72.8582 26.6799 75.0849 27.3866 76.7116 28.7999C78.3382 30.2133 79.1516 32.2133 79.1516 34.7999V46.9999H74.7916L74.3116 43.7999C73.7249 44.8666 72.8982 45.7466 71.8316 46.4399C70.7916 47.1333 69.4449 47.4799 67.7916 47.4799ZM68.9516 43.4799C70.4182 43.4799 71.5516 42.9999 72.3516 42.0399C73.1782 41.0799 73.6982 39.8933 73.9116 38.4799H69.5516C68.1916 38.4799 67.2182 38.7333 66.6316 39.2399C66.0449 39.7199 65.7516 40.3199 65.7516 41.0399C65.7516 41.8133 66.0449 42.4133 66.6316 42.8399C67.2182 43.2666 67.9916 43.4799 68.9516 43.4799Z" fill="#FF6100"/>
<path d="M50.6 47V18.2H55.72V47H50.6Z" fill="#FF6100"/>
<path d="M36.3338 47.4799C34.3338 47.4799 32.5604 47.0533 31.0138 46.1999C29.4671 45.3466 28.2538 44.1466 27.3738 42.5999C26.4938 41.0533 26.0538 39.2666 26.0538 37.2399C26.0538 35.1866 26.4804 33.3599 27.3338 31.7599C28.2138 30.1599 29.4138 28.9199 30.9338 28.0399C32.4804 27.1333 34.2938 26.6799 36.3738 26.6799C38.3204 26.6799 40.0404 27.1066 41.5338 27.9599C43.0271 28.8133 44.1871 29.9866 45.0138 31.4799C45.8671 32.9466 46.2938 34.5866 46.2938 36.3999C46.2938 36.6933 46.2804 36.9999 46.2538 37.3199C46.2538 37.6399 46.2404 37.9733 46.2138 38.3199H31.1338C31.2404 39.8666 31.7738 41.0799 32.7338 41.9599C33.7204 42.8399 34.9071 43.2799 36.2938 43.2799C37.3338 43.2799 38.2004 43.0533 38.8938 42.5999C39.6138 42.1199 40.1471 41.5066 40.4938 40.7599H45.6938C45.3204 42.0133 44.6938 43.1599 43.8138 44.1999C42.9604 45.2133 41.8938 46.0133 40.6138 46.5999C39.3604 47.1866 37.9338 47.4799 36.3338 47.4799ZM36.3738 30.8399C35.1204 30.8399 34.0138 31.1999 33.0538 31.9199C32.0938 32.6133 31.4804 33.6799 31.2138 35.1199H41.0938C41.0138 33.8133 40.5338 32.7733 39.6538 31.9999C38.7738 31.2266 37.6804 30.8399 36.3738 30.8399Z" fill="#FF6100"/>
<path d="M12.36 47.48C10.8667 47.48 9.56001 47.2 8.44001 46.64C7.32001 46.08 6.41334 45.2933 5.72001 44.28L5.16001 47H0.600006V18.2H5.72001V30C6.36001 29.12 7.20001 28.3466 8.24001 27.68C9.30667 27.0133 10.68 26.68 12.36 26.68C14.2267 26.68 15.8933 27.1333 17.36 28.04C18.8267 28.9466 19.9867 30.1866 20.84 31.76C21.6933 33.3333 22.12 35.12 22.12 37.12C22.12 39.12 21.6933 40.9066 20.84 42.48C19.9867 44.0266 18.8267 45.2533 17.36 46.16C15.8933 47.04 14.2267 47.48 12.36 47.48ZM11.28 43C12.9067 43 14.2533 42.4533 15.32 41.36C16.3867 40.2666 16.92 38.8533 16.92 37.12C16.92 35.3866 16.3867 33.96 15.32 32.84C14.2533 31.72 12.9067 31.16 11.28 31.16C9.62667 31.16 8.26667 31.72 7.20001 32.84C6.16001 33.9333 5.64001 35.3466 5.64001 37.08C5.64001 38.8133 6.16001 40.24 7.20001 41.36C8.26667 42.4533 9.62667 43 11.28 43Z" fill="#FF6100"/>
<path fill-rule="evenodd" clip-rule="evenodd" d="M113.808 10.6627L112.236 9.42714C102.438 1.72962 76.2694 -7.20527 51.8771 9.34483L50.2221 10.4678L52.4679 13.7778L54.1229 12.6549C76.718 -2.67581 100.963 5.65805 109.764 12.5725L111.337 13.8081L113.808 10.6627Z" fill="#FF6100"/>
<path fill-rule="evenodd" clip-rule="evenodd" d="M51 52L102 52L102 56L51 56L51 52Z" fill="#FF6100"/>
</svg>
