<svg width="298" height="237" viewBox="0 0 298 237" fill="none" xmlns="http://www.w3.org/2000/svg">
<path d="M8.09363 15.4131L19.56 8.79297C23.3863 6.58383 28.2791 7.89484 30.4882 11.7212L43.9052 34.9601L32.4388 41.5802C28.6125 43.7893 23.7198 42.4783 21.5106 38.652L8.09363 15.4131Z" fill="#33474F"/>
<path d="M2.75 24.8491C1.23122 22.2185 2.13253 18.8547 4.76314 17.3359L8.09361 15.4131L11.0672 20.5636L2.97363 25.2364L2.75 24.8491Z" fill="#EEEEEE"/>
<path d="M5.91675 23.5372L11.0672 20.5636L12.7664 23.5067L10.5591 24.7811C8.93365 25.7196 6.8552 25.1627 5.91675 23.5372Z" fill="#E0E0E0"/>
<path d="M27.2849 18.0675L32.5963 15.0009C34.7211 13.7742 37.3786 13.9647 39.3067 15.4819L46.9011 21.4578L37.1423 25.1137C34.3957 26.1427 31.3077 25.0352 29.8412 22.4951L27.2849 18.0675Z" fill="#D9D9D9"/>
<circle cx="19.2747" cy="17.7871" r="3.39844" transform="rotate(-30 19.2747 17.7871)" fill="#FFFFFE"/>
<path d="M43.9052 34.9601L46.1125 33.6857C46.1125 33.6857 47.6445 34.9316 47.3869 35.893C47.1293 36.8545 45.1796 37.1674 45.1796 37.1674L43.9052 34.9601Z" fill="#33474F"/>
<path d="M37.6824 45L46.1824 53.5" stroke="#EEEEEE" stroke-width="2" stroke-linecap="round"/>
<path d="M49.6824 49L58.1824 57.5" stroke="#EEEEEE" stroke-width="2" stroke-linecap="round"/>
<path d="M43.6824 59L52.1824 67.5" stroke="#EEEEEE" stroke-width="2" stroke-linecap="round"/>
<circle cx="186.682" cy="126" r="73" stroke="#EEEEEE" stroke-width="20"/>
<rect x="243.682" y="202.092" width="27" height="48.9354" rx="13.5" transform="rotate(-45 243.682 202.092)" fill="#FF6100"/>
<path d="M134.756 169.208L156.256 153.208L157.756 140.708L177.256 123.208L178.756 96.7078L188.756 85.2078L185.256 76.2078" stroke="#E0E0E0"/>
<path d="M156.979 152.821L134.979 168.821C160.645 186.488 213.121 191.624 229.979 158.321C246.511 125.661 206.312 82.1547 185.479 75.8214L189.479 85.3214L179.979 95.3214L177.479 123.321L157.979 140.321L156.979 152.821Z" fill="#F4F4F4"/>
<path d="M213.888 132.349L208.545 120.604" stroke="black" stroke-width="2" stroke-linecap="round"/>
<path d="M217.638 125.854L204.795 127.099" stroke="black" stroke-width="2" stroke-linecap="round"/>
<path d="M197.138 161.361L191.795 149.616" stroke="black" stroke-width="2" stroke-linecap="round"/>
<path d="M200.888 154.866L188.045 156.111" stroke="black" stroke-width="2" stroke-linecap="round"/>
<ellipse cx="187.286" cy="131.425" rx="11" ry="6" transform="rotate(120 187.286 131.425)" fill="#334750"/>
<ellipse cx="205.733" cy="111.475" rx="7.5" ry="1" transform="rotate(120 205.733 111.475)" fill="#D9D9D9"/>
<ellipse cx="177.732" cy="159.972" rx="7.5" ry="1" transform="rotate(120 177.732 159.972)" fill="#D9D9D9"/>
<path d="M72.6824 137L77.6824 143L88.9999 140.275L112.682 152L126.085 131.098L135.682 135.5L151.303 126L152.682 127.02" stroke="#E0E0E0" stroke-linecap="round"/>
<path d="M114.788 185.5C74.388 185.5 69.6213 152.833 72.288 136.5L77.788 143L88.788 140.5L112.788 152L126.288 131.5L135.788 135.5L151.288 126.5C151.621 126.5 152.588 126.6 153.788 127C153.788 129.5 165.288 185.5 114.788 185.5Z" fill="#F4F4F4"/>
</svg>
