<svg width="300" height="300" viewBox="0 0 300 300" fill="none" xmlns="http://www.w3.org/2000/svg">
<g clip-path="url(#clip0_1216_4914)">
<path d="M155.5 274C220.393 274 273 221.393 273 156.5C273 91.6065 220.393 39 155.5 39C90.6065 39 38 91.6065 38 156.5C38 221.393 90.6065 274 155.5 274Z" fill="url(#paint0_linear_1216_4914)"/>
<path d="M84.6654 202L134.039 66.4233L238.157 176.512L117.229 232.024C97.858 240.916 77.3717 222.028 84.6654 202Z" fill="#E1DCEB"/>
<path d="M199.569 109.239C213.945 124.556 225.532 139.741 232.648 151.902C236.208 157.986 238.634 163.289 239.739 167.459C240.292 169.544 240.507 171.32 240.383 172.756C240.259 174.188 239.803 175.247 239.044 175.959C238.285 176.672 237.199 177.06 235.763 177.092C234.322 177.125 232.563 176.798 230.517 176.114C226.425 174.747 221.287 171.99 215.44 168.052C203.754 160.181 189.333 147.655 174.958 132.338C160.582 117.022 148.995 101.837 141.879 89.6759C138.319 83.5918 135.893 78.2888 134.788 74.1187C134.235 72.0333 134.02 70.2572 134.144 68.8216C134.267 67.39 134.724 66.3308 135.483 65.6183C136.242 64.9059 137.328 64.5178 138.764 64.4853C140.205 64.4527 141.964 64.7798 144.01 65.4634C148.102 66.8303 153.24 69.5875 159.087 73.5255C170.773 81.3969 185.194 93.9225 199.569 109.239Z" fill="#011625" stroke="#011625"/>
<mask id="mask0_1216_4914" style="mask-type:alpha" maskUnits="userSpaceOnUse" x="83" y="66" width="156" height="169">
<path d="M84.6654 202L134.039 66.4233L238.157 176.512L117.229 232.024C97.858 240.916 77.3717 222.028 84.6654 202Z" fill="#E1DCEB"/>
</mask>
<g mask="url(#mask0_1216_4914)">
<path fill-rule="evenodd" clip-rule="evenodd" d="M131.724 156.574C110.864 129.256 100.309 96.6871 96.9048 74.8214L113.702 72.2062C116.767 91.8881 126.439 121.641 145.235 146.257C163.855 170.642 191.096 189.657 229.947 189.657V206.657C184.607 206.657 152.761 184.124 131.724 156.574Z" fill="#011625"/>
<path fill-rule="evenodd" clip-rule="evenodd" d="M133.963 151.35C113.103 124.031 102.548 91.4625 99.144 69.5968L115.942 66.9816C119.006 86.6636 128.678 116.416 147.474 141.033C166.094 165.417 193.336 184.432 232.186 184.432V201.432C186.846 201.432 155 178.9 133.963 151.35Z" fill="white"/>
<path fill-rule="evenodd" clip-rule="evenodd" d="M107.094 190.907C86.2338 163.589 75.6791 131.02 72.2749 109.154L89.0725 106.539C92.1368 126.221 101.809 155.974 120.605 180.59C139.225 204.974 166.467 223.99 205.317 223.99V240.99C159.977 240.99 128.131 218.457 107.094 190.907Z" fill="white"/>
</g>
<circle cx="180" cy="213" r="30" fill="#FF6100"/>
<path fill-rule="evenodd" clip-rule="evenodd" d="M192.139 203.897C193.301 205.079 193.285 206.978 192.103 208.139L177.861 222.139C176.693 223.287 174.822 223.287 173.655 222.139L167.897 216.48C166.715 215.318 166.699 213.419 167.861 212.237C169.022 211.056 170.921 211.04 172.103 212.201L175.758 215.793L187.897 203.861C189.079 202.699 190.978 202.715 192.139 203.897Z" fill="white"/>
<path d="M238.664 69.7692L238.665 69.7689C240.44 65.2606 241.147 60.7643 241.889 56.0516C242.015 55.2486 242.142 54.4393 242.276 53.6226L238.664 69.7692ZM238.664 69.7692C238.362 70.5387 237.49 70.9193 236.721 70.6154L236.718 70.6143C235.948 70.3153 235.568 69.4453 235.871 68.6768L235.871 68.6767M238.664 69.7692L235.871 68.6767M235.871 68.6767C237.565 64.3725 238.233 60.0624 238.912 55.6857M235.871 68.6767L238.912 55.6857M238.912 55.6857C239.043 54.8401 239.174 53.992 239.314 53.141L238.912 55.6857ZM241.037 51.9025C241.856 52.0375 242.41 52.8067 242.276 53.6225L239.314 53.1408C239.448 52.3231 240.221 51.768 241.037 51.9025Z" fill="#011625" stroke="#011625"/>
<path d="M248.984 81.7937L248.983 81.7941C248.304 82.2657 247.368 82.096 246.894 81.4179C246.423 80.7429 246.589 79.8108 247.269 79.3381C257.337 72.368 267.202 62.9816 274.539 53.1485L274.539 53.1482C275.032 52.4864 275.973 52.3489 276.64 52.8418C277.303 53.3322 277.441 54.27 276.948 54.9329C269.43 65.0107 259.311 74.6399 248.984 81.7937Z" fill="#011625" stroke="#011625"/>
<path d="M276.696 88.3851L276.696 88.3842C276.468 87.5906 275.636 87.1299 274.838 87.3556C267.397 89.4842 259.065 90.7204 251.399 88.3815L251.399 88.3814C250.606 88.1391 249.766 88.5865 249.526 89.3719L249.526 89.3722C249.285 90.157 249.73 90.9973 250.522 91.2395L276.696 88.3851ZM276.696 88.3851C276.923 89.1703 276.467 90 275.668 90.2316M276.696 88.3851L275.668 90.2316M275.668 90.2316C267.571 92.5447 258.653 93.7215 250.522 91.2396L275.668 90.2316Z" fill="#011625" stroke="#011625"/>
<circle cx="251" cy="106" r="6" fill="#417BA4"/>
<circle cx="201" cy="44" r="6" fill="#417BA4"/>
<path d="M212.543 70.4607C212.025 68.3167 208.975 68.3167 208.458 70.4607L207.787 73.2379C207.602 74.0041 207.004 74.6023 206.238 74.7873L203.461 75.4576C201.317 75.9752 201.317 79.0248 203.461 79.5424L206.238 80.2128C207.004 80.3977 207.602 80.9959 207.787 81.7621L208.458 84.5393C208.975 86.6833 212.025 86.6833 212.543 84.5393L213.213 81.7621C213.398 80.9959 213.996 80.3977 214.762 80.2128L217.539 79.5424C219.683 79.0248 219.683 75.9752 217.539 75.4576L214.762 74.7873C213.996 74.6023 213.398 74.0041 213.213 73.2379L212.543 70.4607Z" fill="#417BA4"/>
<path fill-rule="evenodd" clip-rule="evenodd" d="M186.965 24.3106C187.572 25.8525 186.813 27.594 185.271 28.2003C180.87 29.931 175.23 35.5058 171.464 42.4446C168.597 47.7263 167.205 53.0604 167.789 57.4257C169.551 54.9118 171.659 52.8498 174.105 51.5251C178.488 49.1506 183.49 49.4027 188.332 52.7024C192.563 55.5856 194.288 59.6882 193.831 63.776C193.394 67.6844 191.01 71.2176 187.776 73.4372C184.493 75.6901 180.134 76.7289 175.638 75.3521C173.089 74.5715 170.644 73.0622 168.407 70.7704C166.273 79.0787 166.35 89.4857 169.877 98.69C170.47 100.237 169.696 101.972 168.149 102.565C166.602 103.158 164.867 102.384 164.274 100.837C159.623 88.6983 160.227 74.8348 164.02 64.7377C163.912 64.543 163.806 64.3457 163.7 64.1456C159.709 56.6112 162.098 47.1223 166.19 39.5825C170.314 31.9845 176.853 25.0633 183.076 22.6165C184.618 22.0102 186.359 22.7687 186.965 24.3106ZM170.757 64.2219C173.023 67.4406 175.374 68.9962 177.394 69.615C179.939 70.3943 182.42 69.8354 184.381 68.4901C186.39 67.1116 187.652 65.0463 187.868 63.1094C188.065 61.352 187.451 59.3626 184.953 57.6606C181.788 55.5035 179.188 55.5952 176.962 56.8009C174.743 58.0031 172.545 60.5189 170.757 64.2219Z" fill="#E3E3E3"/>
<path fill-rule="evenodd" clip-rule="evenodd" d="M283.809 141.642C252.363 129.954 228.298 144.487 220.516 152.707C218.618 154.713 215.453 154.799 213.448 152.901C211.443 151.002 211.356 147.838 213.254 145.832C223.137 135.393 251.267 118.878 287.293 132.268C289.881 133.23 291.2 136.108 290.238 138.697C289.276 141.285 286.397 142.604 283.809 141.642Z" fill="#CCC6D9"/>
<path fill-rule="evenodd" clip-rule="evenodd" d="M251.819 152.149C252.52 151.892 253.259 151.55 253.828 151.056C254.504 150.469 254.78 149.712 254.964 148.916C255.201 147.893 255.296 146.804 255.584 145.779C255.69 145.399 255.895 145.255 255.983 145.191C256.205 145.03 256.43 144.987 256.641 145.003C256.892 145.022 257.236 145.119 257.462 145.551C257.494 145.612 257.536 145.706 257.564 145.835C257.585 145.93 257.598 146.225 257.62 146.347C257.674 146.647 257.72 146.947 257.763 147.249C257.905 148.253 257.987 149.106 258.437 150.028C259.047 151.281 259.658 152.047 260.487 152.387C261.289 152.715 262.248 152.653 263.472 152.396C263.589 152.367 263.704 152.342 263.818 152.322C264.358 152.225 264.875 152.589 264.981 153.142C265.087 153.694 264.744 154.232 264.208 154.354C264.097 154.379 263.987 154.403 263.878 154.425C262.223 154.846 260.307 156.349 259.193 157.665C258.85 158.07 258.347 159.205 257.835 159.928C257.457 160.462 257.031 160.814 256.675 160.938C256.435 161.022 256.234 161.009 256.067 160.967C255.825 160.906 255.624 160.771 255.47 160.557C255.386 160.439 255.309 160.282 255.272 160.082C255.254 159.985 255.252 159.74 255.252 159.629C255.148 159.259 255.02 158.899 254.927 158.526C254.704 157.637 254.269 157.075 253.751 156.331C253.266 155.635 252.746 155.198 251.983 154.849C251.884 154.824 251.084 154.623 250.801 154.507C250.388 154.338 250.191 154.054 250.12 153.901C249.998 153.641 249.986 153.415 250.01 153.226C250.046 152.947 250.168 152.708 250.384 152.515C250.518 152.396 250.718 152.279 250.986 152.222C251.193 152.178 251.741 152.152 251.819 152.149ZM256.515 150.7C256.552 150.785 256.591 150.87 256.633 150.956C257.527 152.791 258.526 153.815 259.741 154.312L259.782 154.328C258.969 154.948 258.234 155.641 257.671 156.305C257.44 156.579 257.134 157.147 256.802 157.729C256.502 156.724 256.01 156.014 255.391 155.125C254.918 154.447 254.423 153.936 253.814 153.52C254.287 153.271 254.737 152.979 255.13 152.639C255.783 152.071 256.215 151.414 256.515 150.7Z" fill="#417BA4"/>
</g>
<defs>
<linearGradient id="paint0_linear_1216_4914" x1="154.594" y1="0.739115" x2="157.001" y2="413.381" gradientUnits="userSpaceOnUse">
<stop stop-color="#F2F2F2"/>
<stop offset="1" stop-color="#EFEFEF"/>
</linearGradient>
<clipPath id="clip0_1216_4914">
<rect width="300" height="300" fill="white"/>
</clipPath>
</defs>
</svg>
